<?xml version="1.0" standalone="no"?>
<!DOCTYPE svg PUBLIC "-//W3C//DTD SVG 20010904//EN"
 "http://www.w3.org/TR/2001/REC-SVG-20010904/DTD/svg10.dtd">
<svg version="1.0" xmlns="http://www.w3.org/2000/svg"
 width="880.000000pt" height="936.000000pt" viewBox="0 0 880.000000 936.000000"
 preserveAspectRatio="xMidYMid meet">

<g transform="translate(0.000000,936.000000) scale(0.100000,-0.100000)"
fill="#000000" stroke="none">
<path d="M2022 4683 l-2 -4283 2378 2 2377 3 -2372 2 -2373 3 -3 4278 -2 4277
-3 -4282z"/>
<path d="M4418 8845 c-39 -8 -99 -31 -146 -56 -68 -37 -85 -53 -131 -117 -64
-89 -101 -205 -101 -319 l0 -71 -40 -32 c-31 -25 -40 -39 -40 -62 0 -47 35
-155 85 -262 54 -116 135 -367 135 -416 0 -41 -7 -53 -37 -69 -38 -20 -186
-69 -329 -111 -117 -33 -150 -48 -216 -92 -65 -44 -87 -66 -127 -129 -80 -126
-140 -303 -186 -559 -15 -80 -35 -179 -45 -220 -10 -41 -23 -111 -29 -155 -31
-217 -43 -249 -163 -428 -45 -66 -80 -141 -147 -313 -26 -66 -77 -176 -114
-245 -59 -112 -72 -130 -136 -182 -48 -39 -122 -83 -233 -137 -90 -44 -169
-88 -175 -97 -24 -31 -15 -73 21 -109 36 -36 64 -42 124 -25 23 7 32 6 32 -2
0 -18 -35 -72 -94 -146 -67 -83 -76 -101 -76 -145 0 -75 78 -102 141 -49 l32
28 -7 -40 c-32 -183 -20 -205 113 -205 66 0 70 1 100 35 17 20 40 53 51 75 11
22 24 40 28 40 4 0 14 -15 22 -33 21 -45 61 -57 98 -30 43 32 62 75 77 172 7
50 29 132 48 183 19 51 40 118 47 148 15 62 40 106 114 200 123 155 430 589
496 700 25 42 42 89 50 130 17 96 77 325 93 356 14 26 15 21 21 -82 4 -60 12
-147 18 -194 14 -112 5 -211 -31 -329 -29 -93 -42 -161 -76 -381 -9 -58 -27
-154 -41 -214 -13 -60 -24 -135 -24 -167 0 -32 -6 -88 -14 -126 -10 -48 -16
-183 -21 -453 l-7 -385 33 -155 c34 -153 34 -158 31 -375 -2 -214 -3 -227 -47
-457 -55 -290 -56 -349 -16 -683 50 -408 64 -570 59 -710 -4 -113 -9 -145 -41
-250 -20 -66 -47 -158 -58 -203 -22 -83 -22 -84 -3 -159 18 -74 20 -76 108
-160 109 -104 139 -123 193 -123 37 0 46 5 82 47 23 27 61 86 85 133 l45 86
13 299 c7 165 12 398 10 518 -3 243 -2 254 73 557 51 207 66 387 45 532 -16
107 -2 255 39 423 16 66 39 203 50 305 41 350 51 455 51 495 0 22 9 85 19 140
10 55 22 131 26 168 11 99 28 151 52 155 24 4 43 -50 43 -121 0 -53 34 -327
50 -402 6 -27 15 -120 20 -205 6 -104 21 -213 44 -330 19 -96 40 -204 46 -240
6 -36 23 -103 37 -149 25 -83 25 -87 18 -310 -7 -224 -7 -227 23 -382 17 -85
39 -191 50 -235 33 -133 46 -270 38 -411 -5 -107 -2 -159 19 -318 14 -104 25
-239 25 -299 0 -66 6 -132 16 -169 19 -76 83 -203 122 -245 45 -48 100 -45
189 9 90 55 98 63 144 140 31 51 42 83 51 146 11 79 11 83 -26 224 -21 79 -44
172 -52 206 -44 196 -57 469 -29 602 26 123 65 465 65 568 0 112 -22 294 -45
366 -37 123 -57 271 -58 447 -2 166 0 181 30 300 29 115 52 282 84 600 20 197
15 642 -10 793 -11 67 -22 151 -25 187 -3 36 -32 175 -65 309 -34 134 -64 272
-67 306 -6 60 12 424 23 455 10 29 107 -332 119 -440 6 -58 16 -83 104 -235
53 -93 145 -246 203 -338 179 -283 243 -403 266 -493 11 -45 35 -114 52 -154
30 -72 74 -207 99 -306 30 -117 94 -163 151 -108 23 22 29 37 30 73 l1 46 17
-63 c21 -80 48 -112 94 -112 30 0 39 6 57 35 12 20 25 34 29 33 49 -26 63 -30
85 -24 14 3 33 17 41 30 14 20 14 27 0 66 -8 23 -15 44 -15 47 0 2 16 1 35 -3
30 -5 39 -2 65 24 46 46 40 71 -43 197 -41 61 -82 123 -92 139 l-19 29 67 -7
c85 -9 132 5 153 46 18 34 12 78 -14 101 -9 9 -39 25 -67 37 -27 12 -86 43
-130 70 -51 32 -100 53 -134 60 -30 6 -65 17 -78 25 -44 29 -152 270 -202 455
-46 168 -97 294 -153 383 -98 155 -171 445 -188 742 -10 192 -46 380 -91 485
-45 105 -139 210 -232 257 -69 34 -241 94 -327 114 -43 10 -82 36 -167 116
-40 37 -43 44 -43 92 0 75 59 212 132 303 42 53 67 98 98 179 45 118 45 117
-6 184 -17 24 -25 58 -38 165 -15 118 -22 145 -57 220 -36 74 -49 91 -102 130
-80 60 -98 69 -178 91 -80 22 -192 24 -291 4z m224 -45 c75 -15 114 -29 168
-61 81 -49 78 -45 120 -124 38 -68 59 -177 60 -295 0 -74 0 -75 42 -117 l41
-42 -47 -117 c-31 -78 -61 -134 -92 -172 -25 -31 -63 -91 -85 -134 -36 -71
-39 -85 -39 -157 l0 -79 69 -73 c76 -81 87 -87 365 -184 145 -50 150 -53 230
-126 41 -37 66 -71 87 -118 60 -131 105 -350 113 -551 4 -88 16 -175 41 -295
42 -201 66 -279 110 -360 82 -149 120 -239 190 -450 41 -125 94 -268 118 -319
l44 -92 129 -66 c71 -37 149 -79 174 -93 25 -14 68 -37 97 -51 63 -30 80 -48
64 -68 -19 -23 -74 -28 -121 -11 -61 22 -88 19 -101 -9 -15 -33 28 -126 108
-235 65 -86 80 -131 44 -131 -10 0 -35 22 -57 52 -25 33 -47 53 -59 53 -18 0
-20 -6 -18 -56 1 -34 12 -80 27 -117 32 -75 32 -82 4 -82 -17 1 -28 12 -43 42
-26 54 -49 69 -72 45 -15 -14 -16 -22 -6 -48 15 -39 1 -79 -26 -79 -16 0 -24
14 -41 69 -11 37 -20 77 -20 88 0 19 -48 73 -65 73 -5 0 -17 -7 -27 -17 -15
-13 -18 -31 -18 -100 0 -64 -3 -83 -14 -83 -23 0 -51 60 -70 154 -10 49 -36
130 -58 180 -22 50 -51 125 -64 168 -49 153 -105 258 -393 728 -179 293 -200
340 -216 475 -8 61 -29 163 -50 230 -19 66 -43 156 -52 200 -19 97 -24 109
-50 113 -18 3 -21 -8 -37 -135 -9 -76 -20 -231 -23 -345 -6 -218 1 -300 38
-419 24 -79 69 -294 69 -332 0 -16 9 -81 20 -145 39 -233 52 -433 41 -592 -6
-80 -11 -192 -11 -250 0 -149 -24 -319 -85 -605 -49 -229 -43 -490 16 -730 57
-233 62 -514 14 -815 -23 -142 -28 -208 -29 -350 0 -217 15 -395 42 -480 11
-36 34 -130 52 -208 l33 -144 -23 -74 c-26 -82 -37 -95 -154 -178 l-79 -56
-31 18 c-30 18 -102 143 -126 222 -6 19 -15 129 -20 245 -5 135 -14 231 -24
268 -12 45 -16 109 -16 283 0 202 -2 234 -24 327 -13 56 -27 129 -31 162 -4
33 -18 107 -32 165 -34 144 -41 290 -18 410 19 107 17 126 -30 325 -105 439
-121 528 -130 700 -4 72 -11 159 -16 195 -31 216 -59 438 -59 468 0 52 -32 82
-87 82 -56 0 -70 -22 -88 -142 -8 -51 -19 -117 -25 -146 -17 -91 -58 -441 -65
-557 -9 -145 -40 -388 -60 -467 -9 -35 -30 -112 -47 -171 l-30 -109 16 -88
c32 -177 18 -391 -39 -600 -49 -178 -53 -227 -60 -759 l-6 -505 -29 -89 c-33
-103 -108 -224 -145 -233 -17 -4 -37 4 -77 33 -29 22 -61 44 -70 49 -10 5 -38
40 -63 77 -43 65 -45 70 -45 141 0 55 7 91 26 142 34 89 63 226 70 339 12 160
-28 666 -77 995 -18 120 -4 266 46 490 26 115 51 402 49 565 -1 82 -7 119 -33
203 -31 101 -32 110 -37 335 -3 128 -1 331 4 452 10 219 18 281 83 635 17 91
37 206 44 255 8 50 21 113 30 140 32 100 65 258 65 308 0 29 -9 119 -20 201
-11 81 -20 197 -20 258 0 60 -5 118 -10 129 -13 24 -46 25 -59 2 -18 -36 -92
-290 -107 -372 -37 -194 -58 -254 -131 -363 -38 -57 -86 -129 -106 -160 -44
-69 -225 -311 -315 -423 -36 -44 -82 -116 -103 -160 -61 -131 -138 -388 -139
-464 0 -13 -10 -41 -22 -62 -36 -64 -63 -46 -52 34 5 36 2 45 -20 66 -26 25
-27 25 -45 5 -10 -10 -33 -54 -51 -96 -46 -106 -64 -122 -137 -119 -32 1 -61
8 -65 14 -16 25 -7 79 27 153 40 88 41 91 18 116 -25 28 -40 22 -104 -42 -60
-61 -85 -73 -96 -45 -6 16 7 38 113 192 74 108 79 119 59 149 -17 26 -47 30
-91 14 -40 -16 -94 4 -94 34 0 20 24 35 166 106 291 145 354 223 520 643 54
137 92 210 161 309 18 26 33 50 33 53 0 2 13 25 28 49 24 37 31 64 41 153 7
59 25 162 41 228 15 66 40 183 55 260 36 191 118 452 168 541 58 101 147 161
312 210 338 101 372 114 401 159 14 22 15 36 4 132 -14 118 -44 205 -113 326
-40 69 -97 232 -97 276 0 16 15 38 45 64 l45 41 0 80 c1 115 18 180 70 264 42
69 50 76 125 115 68 35 207 85 240 86 6 1 54 -8 107 -19z"/>
</g>
</svg>
